# xmcd
#
# Track frame offsets: 
#        150
#        13389
#        21609
#        30694
#        40966
#        51018
#        61587
#        68266
#        78376
#        90146
#
# Disc length: 1316 seconds
#
# Revision: 0
# Processed by: cddbd v1.4PL0 Copyright (c) Steve Scherf et al.
# Submitted via: ExactAudioCopy v0.90b4
#
DISCID=7105220a
DTITLE=Gene Autry - Christmas Legends
DYEAR=2001
DGENRE=Country
TTITLE0=Rudoplph the Red-Nosed Reindeer
TTITLE1=Thirty-Two Feet and Eight Little Tails
TTITLE2=Jingle Bells
TTITLE3=Here Comes Santa Claus
TTITLE4=Silver Bells
TTITLE5=Buone Natale
TTITLE6=Silent Night
TTITLE7=Santa Claus is Coming to Town
TTITLE8=Up On the House Top
TTITLE9=Frosty the Snowman
EXTD=
EXTT0=
EXTT1=
EXTT2=
EXTT3=
EXTT4=
EXTT5=
EXTT6=
EXTT7=
EXTT8=
EXTT9=
PLAYORDER=
